<?xml version="1.0" encoding="utf-8"?>
<!-- Generator: Adobe Illustrator 27.1.1, SVG Export Plug-In . SVG Version: 6.00 Build 0)  -->
<svg version="1.1" id="Capa_1" xmlns="http://www.w3.org/2000/svg" xmlns:xlink="http://www.w3.org/1999/xlink" x="0px" y="0px"
	 viewBox="0 0 430 180" style="enable-background:new 0 0 430 180;" xml:space="preserve">
<style type="text/css">
	.st0{fill:#EE7D00;}
	.st1{fill:#76BDE9;}
</style>
<g>
	<path class="st0" d="M143.3,76.7c106.5-47.6,150.5-39.2,253.1-4.1C282.6,11.5,224.1,33.1,143.3,76.7"/>
	<path class="st1" d="M307.2,123.7c1.8,0,3.4-0.3,5-1c1.6-0.7,3-1.6,4.1-2.8c1.2-1.2,2.1-2.5,2.8-4.1c0.7-1.6,1-3.3,1-5
		c0-1.8-0.3-3.4-1-5c-0.7-1.6-1.6-3-2.8-4.1c-1.2-1.2-2.5-2.1-4.1-2.8c-1.6-0.7-3.3-1-5-1c-1.8,0-3.4,0.3-5,1
		c-1.6,0.7-3,1.6-4.1,2.8c-1.2,1.2-2.1,2.5-2.8,4.1c-0.7,1.6-1,3.3-1,5c0,1.8,0.3,3.4,1,5c0.7,1.6,1.6,3,2.8,4.1
		c1.2,1.2,2.5,2.1,4.1,2.8C303.8,123.3,305.5,123.7,307.2,123.7 M374.8,110.7c0-1.8-0.3-3.4-1-5c-0.7-1.6-1.6-3-2.8-4.1
		c-1.2-1.2-2.5-2.1-4.1-2.8c-1.6-0.7-3.3-1-5-1c-1.8,0-3.4,0.3-5,1c-1.6,0.7-3,1.6-4.1,2.8c-1.2,1.2-2.1,2.6-2.8,4.1
		c-0.7,1.6-1,3.3-1,5v26.5h-13.6v-26.5c0-3.7,0.7-7.1,2.1-10.3c1.4-3.2,3.3-6,5.7-8.4c2.4-2.4,5.2-4.3,8.4-5.7
		c3.2-1.4,6.7-2.1,10.3-2.1c3.7,0,7.1,0.7,10.3,2.1c3.2,1.4,6,3.3,8.4,5.7c2.4,2.4,4.3,5.2,5.7,8.4c1.4,3.2,2.1,6.7,2.1,10.3H374.8z
		 M252.7,137.2c-3.7,0-7.1-0.7-10.3-2.1c-3.2-1.4-6-3.3-8.4-5.7c-2.4-2.4-4.3-5.2-5.7-8.4c-1.4-3.2-2.1-6.7-2.1-10.3V70.4h13.6v13.8
		h32.7v13.6h-32.7v12.9c0,1.8,0.3,3.4,1,5c0.7,1.6,1.6,3,2.8,4.1c1.2,1.2,2.5,2.1,4.1,2.8c1.6,0.7,3.3,1,5,1c1.8,0,3.4-0.3,5-1
		c1.6-0.7,3-1.6,4.1-2.8c1.2-1.2,2.1-2.5,2.8-4.1c0.7-1.6,1-3.3,1-5h13.6c0,3.7-0.7,7.1-2.1,10.3c-1.4,3.2-3.3,6-5.7,8.4
		c-2.4,2.4-5.2,4.3-8.4,5.7C259.8,136.5,256.3,137.2,252.7,137.2z M210.9,110.7c0-1.8-0.3-3.4-1-5c-0.7-1.6-1.6-3-2.8-4.1
		c-1.2-1.2-2.5-2.1-4.1-2.8c-1.6-0.7-3.3-1-5-1c-1.8,0-3.4,0.3-5,1c-1.6,0.7-3,1.6-4.1,2.8c-1.2,1.2-2.1,2.5-2.8,4.1
		c-0.7,1.6-1,3.3-1,5v26.5h-13.6v-26.5c0-3.7,0.7-7.1,2.1-10.3c1.4-3.2,3.3-6,5.7-8.4c2.4-2.4,5.2-4.3,8.4-5.7
		c3.2-1.4,6.7-2.1,10.3-2.1c3.7,0,7.1,0.7,10.3,2.1c3.2,1.4,6,3.3,8.4,5.7c2.4,2.4,4.3,5.2,5.7,8.4c1.4,3.2,2.1,6.7,2.1,10.3H210.9z
		 M143.3,97.8c-2.3,0-4.3,0.5-6.2,1.6c-1.8,1.1-3.4,2.4-4.6,4.1H154c-1.2-1.7-2.7-3.1-4.6-4.1C147.6,98.3,145.6,97.8,143.3,97.8z
		 M159.5,131.7c-2.3,1.8-4.8,3.1-7.5,4.1c-2.8,1-5.7,1.4-8.7,1.4c-3.7,0-7.1-0.7-10.3-2.1c-3.2-1.4-6-3.3-8.4-5.7
		c-2.4-2.4-4.3-5.2-5.7-8.4c-1.4-3.2-2.1-6.7-2.1-10.3c0-3.7,0.7-7.1,2.1-10.3c1.4-3.2,3.3-6,5.7-8.4c2.4-2.4,5.2-4.3,8.4-5.7
		c3.2-1.4,6.7-2.1,10.3-2.1c3.7,0,7.1,0.7,10.3,2.1c3.2,1.4,6,3.3,8.4,5.7c2.4,2.4,4.3,5.2,5.7,8.4c1.4,3.2,2.1,6.7,2.1,10.3
		c0,1.1-0.1,2.2-0.2,3.3c-0.1,1.1-0.3,2.1-0.5,3.1h-37c1.1,2,2.7,3.6,4.7,4.8c2,1.2,4.2,1.8,6.6,1.8c1.4,0,2.8-0.2,4-0.6
		c1.3-0.4,2.4-1,3.5-1.8L159.5,131.7z M88.7,84.2c3.1,0,6,0.5,8.8,1.5c2.7,1,5.2,2.3,7.5,4l-8.3,10.8c-1.1-0.8-2.3-1.5-3.7-2
		c-1.4-0.5-2.8-0.7-4.3-0.7c-2.4,0-4.6,0.6-6.6,1.8c-2,1.2-3.5,2.8-4.7,4.8h37v0.1c0,2,0.7,4,0.7,6.3c0,3.7-0.7,7.1-2.1,10.3
		c-1.4,3.2-3.3,6-5.7,8.4c-2.4,2.4-5.2,4.3-8.4,5.7c-3.2,1.4-6.7,2.1-10.3,2.1c-3,0-5.9-0.5-8.6-1.4c-2.7-1-5.2-2.2-7.4-3.9
		l8.3-10.8c1.1,0.8,2.4,1.4,3.7,1.9c1.3,0.5,2.7,0.7,4.1,0.7c2.4,0,4.6-0.6,6.6-1.8c2-1.2,3.5-2.8,4.7-4.8h-37c-0.2-1-0.4-2-0.5-3.1
		c-0.1-1.1-0.2-2.2-0.2-3.3c0-3.7,0.7-7.1,2.1-10.3c1.4-3.2,3.3-6,5.7-8.4c2.4-2.4,5.2-4.3,8.4-5.7C81.6,84.9,85,84.2,88.7,84.2z
		 M34.2,123.7c1.8,0,3.4-0.3,5-1c1.6-0.7,3-1.6,4.1-2.8c1.2-1.2,2.1-2.5,2.8-4.1c0.7-1.6,1-3.3,1-5c0-1.8-0.3-3.4-1-5
		c-0.7-1.6-1.6-3-2.8-4.1c-1.2-1.2-2.5-2.1-4.1-2.8c-1.6-0.7-3.3-1-5-1c-1.8,0-3.4,0.3-5,1c-1.6,0.7-3,1.6-4.1,2.8
		c-1.2,1.2-2.1,2.5-2.8,4.1c-0.7,1.6-1,3.3-1,5c0,1.8,0.3,3.4,1,5c0.7,1.6,1.6,3,2.8,4.1c1.2,1.2,2.5,2.1,4.1,2.8
		C30.8,123.3,32.5,123.7,34.2,123.7z M34.2,84.2c3.7,0,7.1,0.7,10.3,2.1c0.9,0.4,1.8,0.8,2.6,1.3v-3.3h13.6c0,17.7,0,35.4,0,53H47.2
		v-3.3c-0.8,0.5-1.7,0.9-2.6,1.3c-3.2,1.4-6.7,2.1-10.3,2.1c-3.7,0-7.1-0.7-10.3-2.1c-3.2-1.4-6-3.3-8.4-5.7
		c-2.4-2.4-4.3-5.2-5.7-8.4c-1.4-3.2-2.1-6.7-2.1-10.3c0-3.7,0.7-7.1,2.1-10.3c1.4-3.2,3.3-6,5.7-8.4c2.4-2.4,5.2-4.3,8.4-5.7
		C27.1,84.9,30.6,84.2,34.2,84.2z M307.2,84.2c3.7,0,7.1,0.7,10.3,2.1c0.9,0.4,1.8,0.8,2.6,1.3v-3.3h13.6c0,17.7,0,35.4,0,53h-13.6
		v-3.3c-0.8,0.5-1.7,0.9-2.6,1.3c-3.2,1.4-6.7,2.1-10.3,2.1c-3.7,0-7.1-0.7-10.3-2.1c-3.2-1.4-6-3.3-8.4-5.7
		c-2.4-2.4-4.3-5.2-5.7-8.4c-1.4-3.2-2.1-6.7-2.1-10.3c0-3.7,0.7-7.1,2.1-10.3c1.4-3.2,3.3-6,5.7-8.4c2.4-2.4,5.2-4.3,8.4-5.7
		C300.1,84.9,303.6,84.2,307.2,84.2z"/>
	<path class="st0" d="M405.6,11.8c0.2,0.1,0.3,0.3,0.5,0.4c0.2-0.7,0.9-1.9,2.7-1.9c2.6-0.1,2.4,0.6,2.4,0.6s-1.1-0.2-1.3,0.5
		c-0.2,0.6-1.1,2.2-2.2,2.1c13.8,13,13.7,36.1,13.4,54c-0.1,6.8-4.1,67.8-9.1,69.3c0.7-7.1,9.5-59.6-2.8-54.8
		c-10.5,4.1-3.6,49.5-3.9,55.2c-3.5-1.3-12.1-52.2,1.4-66.6c3.2-3.5,6.3-5.6,7.5-11.9c1.6-7.8-0.2-33.8-7.2-39.4
		c-2.5,4.2-3.7,0.8-8.3,4.4c-0.9,0.6-1.6,0.4-2.4-0.1c-1-3.2,1-5.8,2.1-8.2c0.3-0.6,0.7-1.3,1.1-1.9c-1.2,0.6-2.4-1.3-2.6-2
		c-0.2-0.7-1.3-0.5-1.3-0.5s-0.2-0.7,2.4-0.6c1.8,0.1,2.5,1.2,2.7,1.9c0.2-0.1,0.3-0.2,0.5-0.3c0,0,0-1.1,0-1.4c0-0.3,0-1-0.2-1.8
		c-0.2-0.9,0.1-1.9,1.2-1.6c1.2,0.3,0.4,1.8,0.4,1.8s-0.2,0.5-0.4,1.3c-0.1,0.4,0,0.8,0.1,1.2c0.6-0.2,1.2-0.2,1.9,0
		c0.1-0.4,0.1-0.8,0.1-1.2c-0.1-0.8-0.4-1.3-0.4-1.3s-0.7-1.6,0.4-1.8c1.2-0.3,1.4,0.7,1.2,1.6c-0.2,0.9-0.2,1.5-0.2,1.8
		C405.7,10.8,405.6,11.5,405.6,11.8"/>
	<path class="st1" d="M418.3,69.8c-0.1,0.4,0.1,0.6-0.1,1.7c-0.2,1.3-1.3,5.2-2.4,5.5c-2,0.3-5.1-3-3.1-4.7
		C414,71.2,416.9,68.6,418.3,69.8"/>
	<path class="st1" d="M414.1,77.4c0.6,1,0.9,1.1,0.2,2.6c-0.4,0.8-1.2,1.7-1.8,2.1c-0.1,0-0.1,0.1-0.2,0.1c-0.6-0.4-1.4-0.6-2.2-0.4
		c-0.3-0.6-0.5-1.4-0.7-1.9c-0.1-0.2-0.1-0.2-0.1-0.2c0-1.4-0.5-2.2,0.5-3.6c0.6,0.1,1.1-0.2,2.1,0.1
		C412.8,76.6,413.4,77,414.1,77.4"/>
	<path class="st1" d="M409.5,75.5c0,0-0.1,0-0.1,0c0,0-0.1,0-0.1,0c-0.3,0.1,0,0.1-0.3,0.1c-0.9,0-1.7-2.2-2-2.7
		c-0.1-0.2,0-0.1-0.1-0.3c0.3-1.3-0.3-1.2,1.5-1.6c0.8-0.2,1.5-0.9,2.4,0C412.7,72.8,410.2,73.8,409.5,75.5"/>
	<path class="st1" d="M406.5,74.1c1.1,1.1,1.4,1.6,0.8,2.7c-1.3,2.3-3.4,3-3.4-0.2c0-1.5,0.1-1.5,1-2.5l0.4-0.1
		c0.1,0,0.3-0.2,0.3-0.2C406.2,73.6,406.2,73.7,406.5,74.1"/>
	<path class="st1" d="M417.5,60.4c-0.6,0.2-1.9,2.5-2.8,1c-0.4-0.7-0.5-2.7,0.1-3.7c0.3-0.3,0.9-0.8,1.2-0.9
		c0.5-0.2,0.8,0.2,1.1,0.6C418.6,59.2,417.9,58.5,417.5,60.4"/>
	<path class="st1" d="M417.9,68.8c-1-0.3-1.5-0.5-2.2-1c0.2-1.2,1.3-2.2,2.1-2.5c0.7-0.1,1.2-0.5,2.2-0.1c0.1,0.8,0.3,1.6-0.1,2.6
		C419.4,69.3,419,68.9,417.9,68.8"/>
	<path class="st1" d="M412.5,66.3l0.6,0c0.8,0,1.2,0.4,1.6,0.8c-0.3,0.9-0.7,1.1-1.1,1.9c-0.2,0.4-0.3,0.9-0.4,1.3
		c-0.1,0.2-0.1,0.4-0.3,0.5c-1.1,1.4-2.2-3.6-2-4c0.2-0.3,1.5-0.4,1.6-0.6C412.4,66.3,412.5,66.4,412.5,66.3"/>
	<path class="st1" d="M418.7,57.7C418.7,57.7,418.6,57.6,418.7,57.7c-0.1-0.1-0.1-0.2-0.1-0.2c-0.7-0.8-2.1-1.2-1.6-2.4
		c0.6-0.1,1.1,0,1.7-0.2c0.2-0.1,0.5-0.2,0.7-0.2c0.2,0,0.2,0,0.4,0c0,0,0.2,0,0.2,0c0,0,0.1,0,0.1,0c0,0,0.1,0,0.1,0l0.8,0.3
		c0.1,0.9,0.2,2.9-0.9,3.3C419.4,58.2,419.4,57.9,418.7,57.7"/>
	<path class="st1" d="M406,82.6c-0.5,1.3-2.8-0.1-4-0.4c-0.3-0.4-0.7-0.7-0.1-1.1c0.4-0.2,0.7-0.2,1.1-0.5c0.7-0.5,1.3-1.1,2.3-0.9
		C405.9,80.3,406.2,81.5,406,82.6"/>
	<path class="st1" d="M420.9,62.4l-0.5,1.6c-0.9,0.2-1.2,0.2-1.8-0.6c-0.6-0.8-0.5-1.2,0-2.1c0.7-0.7,0.9-1.9,1.5-2.4
		C421.7,59.1,420.9,61.6,420.9,62.4"/>
	<path class="st1" d="M419.7,53.7c-0.3,0-0.1,0.1-0.7-0.1c-1.3-0.5-1.5-3.5,1.1-2.4C420.3,52.1,419.8,52.7,419.7,53.7"/>
	<path class="st1" d="M408,80.7L408,80.7c-1.1-0.3-1.4-0.9-1.5-1.9C406.3,77.9,409.9,76.5,408,80.7"/>
	<path class="st1" d="M415.4,55.1c-0.4-0.5-0.4-1.4-0.2-2.1c0.4-0.1,2.2-0.7,2.1,0.5C417.2,54.3,416.2,55.3,415.4,55.1"/>
	<path class="st1" d="M402.7,77.6c0.4,0,0.7,0,0.9,0.4c0,0.9-0.8,1.9-1.5,2.1c-0.1,0-0.2-0.1-0.2-0.1
		C402.1,79.1,402.4,78.3,402.7,77.6"/>
	<path class="st1" d="M416.1,50L416.1,50c0.6-0.4,0.3-0.6,1-0.7c0.2,0.4,0.4,1.7,0.1,2.2c-0.3,0.5-1.3,0.9-2.1,0.6
		C415.2,51.3,415.7,50.6,416.1,50"/>
	<path class="st1" d="M417.1,63.7c-0.3,0.9-1,2-1.8,2.2c-0.3-0.5-0.2-1.6-0.1-2.4C415.4,62.1,416.6,63.2,417.1,63.7"/>
	<path class="st1" d="M419.7,39c-1-0.3-1.9-1-1.6-2.1c0.1-0.6,0.4-1.6,0.7-2.6C419.1,35.9,419.5,37.4,419.7,39"/>
	<path class="st1" d="M420.5,44.4c-0.3-0.2-0.7-0.5-0.9-0.7c-0.2-0.1-0.2-0.1-0.2-0.1c-0.7-0.9-1.4-1.3-1.4-2.7
		c0.4-0.2,0.7-0.7,1.5-0.9c0.1,0,0.3-0.1,0.4-0.1C420.1,41.4,420.3,42.9,420.5,44.4"/>
	<path class="st1" d="M417.5,40.7C417.4,40.7,417.4,40.7,417.5,40.7c-0.1,0.1-0.1,0.1-0.1,0.2c-0.2,0.2,0.1,0-0.2,0.2
		c-0.6,0.4-2.3-0.6-2.7-0.9c-0.2-0.1-0.1-0.1-0.2-0.1c0,0,0-0.1,0-0.1c0-0.4-0.1-0.8-0.1-1.2c0.1-0.1,0.2-0.3,0.4-0.5
		c0.4-0.5,0.6-1.3,1.7-1.2C418.2,37.3,417.1,39.2,417.5,40.7"/>
	<path class="st1" d="M414.7,41.2c1.3,0.2,1.8,0.4,1.9,1.5c0.2,2-0.7,3.4-2,2c-0.1-1.2-0.2-2.4-0.3-3.6
		C414.4,41.1,414.5,41.2,414.7,41.2"/>
	<path class="st1" d="M415.4,26.4c-0.3,0.4-0.1,2.7-1.5,2.1c-0.7-0.3-1.7-1.6-1.7-2.6c0-0.4,0.2-1,0.4-1.2c0.2-0.4,0.7-0.2,1.1-0.1
		C415.6,25.1,414.8,24.9,415.4,26.4"/>
	<path class="st1" d="M418.2,32.3c-0.1,0-0.2,0-0.3,0c-0.3-0.5-0.3-1.2-0.2-1.7C417.9,31.1,418.1,31.7,418.2,32.3"/>
	<path class="st1" d="M415,32.9l0.4-0.3c0.5-0.4,1-0.3,1.5-0.2c0.3,0.7,0,1.1,0.2,1.8c0.1,0.4,0.2,0.7,0.3,1.1
		c0,0.2,0.1,0.3,0.1,0.5c-0.1,1.5-3.3-1.4-3.4-1.7C414.1,33.9,414.9,33.2,415,32.9C414.9,33,414.9,33,415,32.9"/>
	<path class="st1" d="M414.9,23.9C414.9,23.9,414.9,23.9,414.9,23.9c-0.1,0-0.1-0.1-0.2-0.1c-0.9-0.2-2,0.2-2.3-0.9
		c0.4-0.4,0.8-0.5,1.1-1c0.1-0.2,0.2-0.3,0.3-0.5c0.4,0.8,0.8,1.5,1.2,2.3C415.1,23.9,415,23.9,414.9,23.9"/>
	<path class="st1" d="M418.5,47.3c0.3,1.2-2,1.3-2.9,1.7c-0.4-0.2-0.8-0.1-0.6-0.7c0.1-0.4,0.4-0.5,0.5-0.9c0.2-0.7,0.4-1.4,1.2-1.7
		C417.3,45.8,418.1,46.4,418.5,47.3"/>
	<path class="st1" d="M413.5,20.9c-0.1,0-0.2,0.1-0.4,0.1c-1.1,0.3-2.6-1.4-0.9-2.1C412.7,19.6,413.1,20.2,413.5,20.9"/>
	<path class="st1" d="M419,45.1L419,45.1c-0.9,0.3-1.4,0.1-2-0.5C416.4,43.9,418.2,41.2,419,45.1"/>
	<path class="st1" d="M411.4,23.8c-0.5-0.2-1-0.8-1.2-1.4c0.2-0.3,1.2-1.6,1.7-0.7C412.3,22.4,412,23.5,411.4,23.8"/>
	<path class="st1" d="M414.7,45.4c0.3,0.5,0.3,1.3,0.1,1.8C414.7,46.6,414.7,46,414.7,45.4"/>
	<path class="st1" d="M409.4,19.9L409.4,19.9c0.2-0.6-0.1-0.6,0.3-1c0.3,0.2,1.1,1,1.2,1.5c0,0.5-0.4,1.3-1.1,1.4
		C409.4,21.2,409.4,20.5,409.4,19.9"/>
	<path class="st1" d="M416.8,28.8c0.2,0.8,0.3,1.8-0.1,2.4c-0.5-0.2-0.9-1-1.2-1.6C414.9,28.6,416.3,28.8,416.8,28.8"/>
	<path class="st1" d="M414.6,32.2c-0.3,0.1-0.9,0.8-1.4,1.1c-0.2-1.2-0.5-2.3-0.8-3.5c0.3-0.3,0.7-0.6,1-0.7
		c0.4-0.1,0.7,0.2,0.9,0.6C415.5,31.3,414.9,30.7,414.6,32.2"/>
	<path class="st1" d="M420.9,49.5c-0.6,0.5-1.2,1-1.7,0.2c-0.4-0.6-0.4-2.3,0.2-3.1c0.3-0.3,0.8-0.7,1.1-0.8c0.1,0,0.1,0,0.2,0
		C420.7,47.1,420.8,48.3,420.9,49.5"/>
	<g>
		<path class="st1" d="M47,168.8h-4l-1.6-4.1h-7.3l-1.5,4.1h-3.9l7.1-18.3h3.9L47,168.8z M40.2,161.5l-2.5-6.8l-2.5,6.8H40.2z"/>
		<path class="st1" d="M47.7,165l3.5-0.5c0.1,0.7,0.5,1.2,0.9,1.6c0.5,0.4,1.1,0.5,1.9,0.5c0.9,0,1.6-0.2,2-0.5
			c0.3-0.2,0.5-0.5,0.5-0.9c0-0.3-0.1-0.5-0.2-0.7c-0.2-0.2-0.6-0.3-1.2-0.5c-2.8-0.6-4.6-1.2-5.4-1.7c-1-0.7-1.6-1.7-1.6-3
			c0-1.1,0.5-2.1,1.4-2.9c0.9-0.8,2.3-1.2,4.2-1.2c1.8,0,3.2,0.3,4,0.9c0.9,0.6,1.5,1.5,1.8,2.6l-3.3,0.6c-0.1-0.5-0.4-0.9-0.8-1.2
			c-0.4-0.3-1-0.4-1.7-0.4c-0.9,0-1.6,0.1-2,0.4c-0.3,0.2-0.4,0.4-0.4,0.7c0,0.2,0.1,0.5,0.3,0.6c0.3,0.2,1.4,0.6,3.3,1
			c1.9,0.4,3.2,0.9,3.9,1.6c0.7,0.6,1.1,1.5,1.1,2.6c0,1.2-0.5,2.3-1.5,3.1c-1,0.9-2.5,1.3-4.5,1.3c-1.8,0-3.2-0.4-4.3-1.1
			C48.7,167.2,48,166.2,47.7,165z"/>
		<path class="st1" d="M70.8,164.5l3.5,0.6c-0.4,1.3-1.2,2.3-2.1,2.9c-1,0.7-2.2,1-3.6,1c-2.3,0-4-0.8-5.1-2.3
			c-0.9-1.2-1.3-2.7-1.3-4.6c0-2.2,0.6-3.9,1.7-5.2c1.1-1.2,2.6-1.9,4.3-1.9c2,0,3.5,0.6,4.7,2c1.1,1.3,1.7,3.3,1.6,6h-8.8
			c0,1,0.3,1.8,0.8,2.4c0.5,0.6,1.2,0.9,2,0.9c0.5,0,1-0.1,1.4-0.4C70.3,165.7,70.6,165.2,70.8,164.5z M71,161c0-1-0.3-1.8-0.8-2.3
			c-0.5-0.5-1.1-0.8-1.8-0.8c-0.8,0-1.4,0.3-1.9,0.8c-0.5,0.6-0.7,1.3-0.7,2.3H71z"/>
		<path class="st1" d="M76.1,165l3.5-0.5c0.1,0.7,0.5,1.2,0.9,1.6c0.5,0.4,1.1,0.5,1.9,0.5c0.9,0,1.6-0.2,2-0.5
			c0.3-0.2,0.5-0.5,0.5-0.9c0-0.3-0.1-0.5-0.2-0.7c-0.2-0.2-0.6-0.3-1.2-0.5c-2.8-0.6-4.6-1.2-5.4-1.7c-1-0.7-1.6-1.7-1.6-3
			c0-1.1,0.5-2.1,1.4-2.9c0.9-0.8,2.3-1.2,4.2-1.2c1.8,0,3.2,0.3,4,0.9c0.9,0.6,1.5,1.5,1.8,2.6l-3.3,0.6c-0.1-0.5-0.4-0.9-0.8-1.2
			s-1-0.4-1.7-0.4c-0.9,0-1.6,0.1-2,0.4c-0.3,0.2-0.4,0.4-0.4,0.7c0,0.2,0.1,0.5,0.3,0.6c0.3,0.2,1.4,0.6,3.3,1
			c1.9,0.4,3.2,0.9,3.9,1.6c0.7,0.6,1.1,1.5,1.1,2.6c0,1.2-0.5,2.3-1.5,3.1c-1,0.9-2.5,1.3-4.5,1.3c-1.8,0-3.2-0.4-4.3-1.1
			C77.1,167.2,76.4,166.2,76.1,165z"/>
		<path class="st1" d="M90.7,162c0-1.2,0.3-2.3,0.9-3.4c0.6-1.1,1.4-1.9,2.4-2.5c1.1-0.6,2.2-0.9,3.5-0.9c2,0,3.6,0.6,4.9,2
			c1.3,1.3,1.9,2.9,1.9,4.9c0,2-0.6,3.7-1.9,5c-1.3,1.3-2.9,2-4.9,2c-1.2,0-2.4-0.3-3.5-0.8c-1.1-0.5-1.9-1.4-2.5-2.4
			C91,164.8,90.7,163.5,90.7,162z M94.3,162.1c0,1.3,0.3,2.3,0.9,3c0.6,0.7,1.4,1,2.3,1c0.9,0,1.7-0.3,2.3-1c0.6-0.7,0.9-1.7,0.9-3
			c0-1.3-0.3-2.3-0.9-3c-0.6-0.7-1.4-1-2.3-1c-0.9,0-1.7,0.3-2.3,1C94.6,159.8,94.3,160.8,94.3,162.1z"/>
		<path class="st1" d="M110.4,168.8h-3.5v-13.2h3.3v1.9c0.6-0.9,1.1-1.5,1.5-1.8c0.4-0.3,0.9-0.4,1.5-0.4c0.8,0,1.6,0.2,2.3,0.7
			l-1.1,3.1c-0.6-0.4-1.1-0.6-1.6-0.6c-0.5,0-0.9,0.1-1.2,0.4c-0.3,0.3-0.6,0.8-0.8,1.5c-0.2,0.7-0.3,2.2-0.3,4.4V168.8z"/>
		<path class="st1" d="M116.7,153.9l1.7-3.7h3.9l-3.4,3.7H116.7z M117,168.8v-13.2h3.5v13.2H117z"/>
		<path class="st1" d="M126.7,159.6l-3.2-0.6c0.4-1.3,1-2.2,1.8-2.8c0.9-0.6,2.2-0.9,3.9-0.9c1.6,0,2.7,0.2,3.5,0.6
			c0.8,0.4,1.3,0.8,1.6,1.4c0.3,0.6,0.5,1.6,0.5,3.1l0,4.1c0,1.2,0.1,2,0.2,2.6c0.1,0.6,0.3,1.1,0.6,1.8h-3.5
			c-0.1-0.2-0.2-0.6-0.3-1c-0.1-0.2-0.1-0.3-0.1-0.4c-0.6,0.6-1.2,1-1.9,1.3c-0.7,0.3-1.4,0.4-2.2,0.4c-1.4,0-2.4-0.4-3.2-1.1
			c-0.8-0.7-1.2-1.7-1.2-2.8c0-0.7,0.2-1.4,0.5-2c0.4-0.6,0.9-1,1.5-1.3c0.6-0.3,1.6-0.6,2.8-0.8c1.6-0.3,2.8-0.6,3.4-0.9v-0.3
			c0-0.7-0.2-1.2-0.5-1.4c-0.3-0.3-1-0.4-1.9-0.4c-0.6,0-1.1,0.1-1.5,0.4C127.2,158.5,126.9,158.9,126.7,159.6z M131.4,162.4
			c-0.4,0.1-1.2,0.3-2.1,0.5c-1,0.2-1.6,0.4-1.9,0.6c-0.5,0.3-0.7,0.7-0.7,1.2c0,0.5,0.2,0.9,0.5,1.3c0.4,0.4,0.8,0.5,1.4,0.5
			c0.6,0,1.2-0.2,1.8-0.6c0.4-0.3,0.7-0.7,0.8-1.2c0.1-0.3,0.1-0.9,0.1-1.7V162.4z"/>
		<path class="st1" d="M143.7,155.5h3.7l3.2,9.4l3.1-9.4h3.6l-4.7,12.7l-0.8,2.3c-0.3,0.8-0.6,1.4-0.9,1.8c-0.3,0.4-0.6,0.7-1,1
			c-0.4,0.3-0.8,0.5-1.3,0.6c-0.5,0.1-1.1,0.2-1.8,0.2c-0.7,0-1.3-0.1-2-0.2l-0.3-2.7c0.5,0.1,1,0.2,1.5,0.2c0.8,0,1.4-0.2,1.8-0.7
			c0.4-0.5,0.7-1.1,0.9-1.8L143.7,155.5z"/>
		<path class="st1" d="M178.4,162l3.6,1.1c-0.5,2-1.5,3.5-2.7,4.4c-1.3,1-2.9,1.5-4.9,1.5c-2.4,0-4.4-0.8-6-2.5
			c-1.6-1.7-2.3-3.9-2.3-6.8c0-3,0.8-5.4,2.4-7.1c1.6-1.7,3.6-2.5,6.2-2.5c2.2,0,4.1,0.7,5.4,2c0.8,0.8,1.5,1.9,1.9,3.4l-3.7,0.9
			c-0.2-0.9-0.7-1.7-1.4-2.2c-0.7-0.5-1.5-0.8-2.5-0.8c-1.4,0-2.5,0.5-3.3,1.5c-0.8,1-1.3,2.5-1.3,4.7c0,2.3,0.4,4,1.2,4.9
			c0.8,1,1.9,1.5,3.2,1.5c1,0,1.8-0.3,2.5-0.9C177.6,164.4,178.1,163.4,178.4,162z"/>
		<path class="st1" d="M184.3,162c0-1.2,0.3-2.3,0.9-3.4s1.4-1.9,2.4-2.5c1.1-0.6,2.2-0.9,3.5-0.9c2,0,3.6,0.6,4.9,2
			c1.3,1.3,1.9,2.9,1.9,4.9c0,2-0.6,3.7-1.9,5c-1.3,1.3-2.9,2-4.9,2c-1.2,0-2.4-0.3-3.5-0.8c-1.1-0.5-1.9-1.4-2.5-2.4
			C184.6,164.8,184.3,163.5,184.3,162z M187.9,162.1c0,1.3,0.3,2.3,0.9,3c0.6,0.7,1.4,1,2.3,1c0.9,0,1.7-0.3,2.3-1
			c0.6-0.7,0.9-1.7,0.9-3c0-1.3-0.3-2.3-0.9-3c-0.6-0.7-1.4-1-2.3-1c-0.9,0-1.7,0.3-2.3,1C188.2,159.8,187.9,160.8,187.9,162.1z"/>
		<path class="st1" d="M212.7,168.8h-3.5V162c0-1.4-0.1-2.4-0.2-2.8c-0.1-0.4-0.4-0.7-0.7-1c-0.3-0.2-0.7-0.3-1.2-0.3
			c-0.6,0-1.2,0.2-1.6,0.5s-0.8,0.8-1,1.3c-0.2,0.5-0.3,1.6-0.3,3v6h-3.5v-13.2h3.3v1.9c1.2-1.5,2.6-2.2,4.4-2.2
			c0.8,0,1.5,0.1,2.1,0.4c0.6,0.3,1.1,0.6,1.5,1.1c0.3,0.4,0.6,0.9,0.7,1.5c0.1,0.5,0.2,1.3,0.2,2.4V168.8z"/>
		<path class="st1" d="M215,165l3.5-0.5c0.1,0.7,0.5,1.2,0.9,1.6c0.5,0.4,1.1,0.5,1.9,0.5c0.9,0,1.6-0.2,2-0.5
			c0.3-0.2,0.5-0.5,0.5-0.9c0-0.3-0.1-0.5-0.2-0.7c-0.2-0.2-0.6-0.3-1.2-0.5c-2.8-0.6-4.6-1.2-5.4-1.7c-1-0.7-1.6-1.7-1.6-3
			c0-1.1,0.5-2.1,1.4-2.9c0.9-0.8,2.3-1.2,4.2-1.2c1.8,0,3.2,0.3,4,0.9c0.9,0.6,1.5,1.5,1.8,2.6l-3.3,0.6c-0.1-0.5-0.4-0.9-0.8-1.2
			c-0.4-0.3-1-0.4-1.7-0.4c-0.9,0-1.6,0.1-2,0.4c-0.3,0.2-0.4,0.4-0.4,0.7c0,0.2,0.1,0.5,0.3,0.6c0.3,0.2,1.4,0.6,3.3,1
			c1.9,0.4,3.2,0.9,3.9,1.6c0.7,0.6,1.1,1.5,1.1,2.6c0,1.2-0.5,2.3-1.5,3.1c-1,0.9-2.5,1.3-4.5,1.3c-1.8,0-3.2-0.4-4.3-1.1
			C216.1,167.2,215.4,166.2,215,165z"/>
		<path class="st1" d="M239.2,168.8v-2c-0.5,0.7-1.1,1.3-1.9,1.7c-0.8,0.4-1.6,0.6-2.5,0.6c-0.9,0-1.7-0.2-2.4-0.6
			c-0.7-0.4-1.2-0.9-1.5-1.6c-0.3-0.7-0.5-1.7-0.5-2.9v-8.4h3.5v6.1c0,1.9,0.1,3,0.2,3.4c0.1,0.4,0.4,0.8,0.7,1
			c0.3,0.2,0.8,0.4,1.3,0.4c0.6,0,1.1-0.2,1.6-0.5c0.5-0.3,0.8-0.7,1-1.2c0.2-0.5,0.3-1.7,0.3-3.6v-5.6h3.5v13.2H239.2z"/>
		<path class="st1" d="M246.1,168.8v-18.3h3.5v18.3H246.1z"/>
		<path class="st1" d="M259.2,155.5v2.8h-2.4v5.3c0,1.1,0,1.7,0.1,1.9c0,0.2,0.1,0.3,0.3,0.4c0.2,0.1,0.4,0.2,0.6,0.2
			c0.3,0,0.8-0.1,1.4-0.3l0.3,2.7c-0.8,0.3-1.7,0.5-2.8,0.5c-0.6,0-1.2-0.1-1.7-0.3c-0.5-0.2-0.9-0.5-1.1-0.8
			c-0.2-0.3-0.4-0.8-0.5-1.4c-0.1-0.4-0.1-1.2-0.1-2.5v-5.8h-1.6v-2.8h1.6v-2.6l3.5-2v4.7H259.2z"/>
		<path class="st1" d="M260.8,162c0-1.2,0.3-2.3,0.9-3.4s1.4-1.9,2.4-2.5c1.1-0.6,2.2-0.9,3.5-0.9c2,0,3.6,0.6,4.9,2
			c1.3,1.3,1.9,2.9,1.9,4.9c0,2-0.6,3.7-1.9,5c-1.3,1.3-2.9,2-4.9,2c-1.2,0-2.4-0.3-3.5-0.8c-1.1-0.5-1.9-1.4-2.5-2.4
			C261.1,164.8,260.8,163.5,260.8,162z M264.4,162.1c0,1.3,0.3,2.3,0.9,3c0.6,0.7,1.4,1,2.3,1c0.9,0,1.7-0.3,2.3-1
			c0.6-0.7,0.9-1.7,0.9-3c0-1.3-0.3-2.3-0.9-3c-0.6-0.7-1.4-1-2.3-1c-0.9,0-1.7,0.3-2.3,1C264.7,159.8,264.4,160.8,264.4,162.1z"/>
		<path class="st1" d="M280.6,168.8h-3.5v-13.2h3.3v1.9c0.6-0.9,1.1-1.5,1.5-1.8c0.4-0.3,0.9-0.4,1.5-0.4c0.8,0,1.6,0.2,2.3,0.7
			l-1.1,3.1c-0.6-0.4-1.1-0.6-1.6-0.6c-0.5,0-0.9,0.1-1.2,0.4c-0.3,0.3-0.6,0.8-0.8,1.5c-0.2,0.7-0.3,2.2-0.3,4.4V168.8z"/>
		<path class="st1" d="M286.9,153.9l1.7-3.7h3.9l-3.4,3.7H286.9z M287.2,168.8v-13.2h3.5v13.2H287.2z"/>
		<path class="st1" d="M296.9,159.6l-3.2-0.6c0.4-1.3,1-2.2,1.8-2.8c0.9-0.6,2.2-0.9,3.9-0.9c1.6,0,2.7,0.2,3.5,0.6
			c0.8,0.4,1.3,0.8,1.6,1.4c0.3,0.6,0.5,1.6,0.5,3.1l0,4.1c0,1.2,0.1,2,0.2,2.6c0.1,0.6,0.3,1.1,0.6,1.8h-3.5
			c-0.1-0.2-0.2-0.6-0.3-1c-0.1-0.2-0.1-0.3-0.1-0.4c-0.6,0.6-1.2,1-1.9,1.3c-0.7,0.3-1.4,0.4-2.2,0.4c-1.4,0-2.4-0.4-3.2-1.1
			c-0.8-0.7-1.2-1.7-1.2-2.8c0-0.7,0.2-1.4,0.5-2c0.4-0.6,0.9-1,1.5-1.3c0.6-0.3,1.6-0.6,2.8-0.8c1.6-0.3,2.8-0.6,3.4-0.9v-0.3
			c0-0.7-0.2-1.2-0.5-1.4c-0.3-0.3-1-0.4-1.9-0.4c-0.6,0-1.1,0.1-1.5,0.4C297.4,158.5,297.1,158.9,296.9,159.6z M301.6,162.4
			c-0.4,0.1-1.2,0.3-2.1,0.5c-1,0.2-1.6,0.4-1.9,0.6c-0.5,0.3-0.7,0.7-0.7,1.2c0,0.5,0.2,0.9,0.5,1.3c0.4,0.4,0.8,0.5,1.4,0.5
			c0.6,0,1.2-0.2,1.8-0.6c0.4-0.3,0.7-0.7,0.8-1.2c0.1-0.3,0.1-0.9,0.1-1.7V162.4z"/>
		<path class="st1" d="M314.6,162.8l3.6-0.3c0.2,1.2,0.7,2.1,1.3,2.7c0.7,0.6,1.6,0.8,2.7,0.8c1.2,0,2.1-0.3,2.7-0.8
			c0.6-0.5,0.9-1.1,0.9-1.8c0-0.4-0.1-0.8-0.4-1.1c-0.3-0.3-0.7-0.6-1.3-0.8c-0.4-0.1-1.4-0.4-3-0.8c-2-0.5-3.4-1.1-4.2-1.8
			c-1.1-1-1.7-2.2-1.7-3.7c0-0.9,0.3-1.8,0.8-2.6c0.5-0.8,1.3-1.4,2.3-1.9c1-0.4,2.2-0.6,3.6-0.6c2.3,0,4,0.5,5.2,1.5
			c1.2,1,1.8,2.3,1.8,4l-3.7,0.2c-0.2-0.9-0.5-1.6-1-2s-1.3-0.6-2.3-0.6c-1.1,0-1.9,0.2-2.5,0.7c-0.4,0.3-0.6,0.7-0.6,1.1
			c0,0.4,0.2,0.8,0.5,1.1c0.5,0.4,1.6,0.8,3.4,1.2c1.8,0.4,3.1,0.9,4,1.3s1.5,1.1,2,1.9c0.5,0.8,0.7,1.8,0.7,2.9c0,1-0.3,2-0.9,2.9
			c-0.6,0.9-1.4,1.6-2.5,2c-1.1,0.4-2.4,0.7-4,0.7c-2.3,0-4.1-0.5-5.3-1.6C315.6,166.4,314.9,164.9,314.6,162.8z"/>
		<path class="st1" d="M332.6,168.8v-3.5h3.5v3.5H332.6z"/>
		<path class="st1" d="M356.2,168.8h-4l-1.6-4.1h-7.3l-1.5,4.1h-3.9l7.1-18.3h3.9L356.2,168.8z M349.4,161.5l-2.5-6.8l-2.5,6.8
			H349.4z"/>
		<path class="st1" d="M358.1,168.8v-3.5h3.5v3.5H358.1z"/>
		<path class="st1" d="M364.3,162.8l3.6-0.3c0.2,1.2,0.7,2.1,1.3,2.7c0.7,0.6,1.6,0.8,2.7,0.8c1.2,0,2.1-0.3,2.7-0.8
			c0.6-0.5,0.9-1.1,0.9-1.8c0-0.4-0.1-0.8-0.4-1.1c-0.3-0.3-0.7-0.6-1.3-0.8c-0.4-0.1-1.4-0.4-3-0.8c-2-0.5-3.4-1.1-4.2-1.8
			c-1.1-1-1.7-2.2-1.7-3.7c0-0.9,0.3-1.8,0.8-2.6c0.5-0.8,1.3-1.4,2.3-1.9c1-0.4,2.2-0.6,3.6-0.6c2.3,0,4,0.5,5.2,1.5
			c1.2,1,1.8,2.3,1.8,4l-3.7,0.2c-0.2-0.9-0.5-1.6-1-2s-1.3-0.6-2.3-0.6c-1.1,0-1.9,0.2-2.5,0.7c-0.4,0.3-0.6,0.7-0.6,1.1
			c0,0.4,0.2,0.8,0.5,1.1c0.5,0.4,1.6,0.8,3.4,1.2c1.8,0.4,3.1,0.9,4,1.3s1.5,1.1,2,1.9c0.5,0.8,0.7,1.8,0.7,2.9c0,1-0.3,2-0.9,2.9
			c-0.6,0.9-1.4,1.6-2.5,2c-1.1,0.4-2.4,0.7-4,0.7c-2.3,0-4.1-0.5-5.3-1.6C365.3,166.4,364.5,164.9,364.3,162.8z"/>
	</g>
</g>
</svg>
